# xmcd CD database file
#
# Track frame offsets:
#	150
#	13197
#	31971
#	52341
#	75538
#	92503
#	114202
#	135223
#	157037
#	181333
#	209675
#	237510
#	266195
#
# Disc length: 3800 seconds
#
# Revision: 3
# Processed by: cddbd v1.5.2PL0 Copyright (c) Steve Scherf et al.
# Submitted via: jetAudio 7
#
DISCID=af0ed60d
DTITLE=???? - Listen To The Music 2
DYEAR=2005
DGENRE=Misc
TTITLE0=Smile
TTITLE1=Your Song
TTITLE2=?????????
TTITLE3=?????????
TTITLE4=I will be Here
TTITLE5=Forget-me-not
TTITLE6=??????????
TTITLE7=Time After Time
TTITLE8=???????
TTITLE9=???????
TTITLE10=?????
TTITLE11=????????
TTITLE12=???????????
EXTD=YEAR: 2005
EXTT0=
EXTT1=
EXTT2=
EXTT3=
EXTT4=
EXTT5=
EXTT6=
EXTT7=
EXTT8=
EXTT9=
EXTT10=
EXTT11=
EXTT12=
PLAYORDER=
